<?xml version="1.0" encoding="UTF-8"?>
<svg width="14px" height="14px" viewBox="0 0 14 14" version="1.1" xmlns="http://www.w3.org/2000/svg" xmlns:xlink="http://www.w3.org/1999/xlink">
    <!-- Generator: Sketch 48.1 (47250) - http://www.bohemiancoding.com/sketch -->
    <title>Combined Shape</title>
    <desc>Created with Sketch.</desc>
    <defs></defs>
    <g id="003交易人民币样式" stroke="none" stroke-width="1" fill="none" fill-rule="evenodd" transform="translate(-1575.000000, -26.000000)">
        <g id="Group-57" fill="#C2CAF0">
            <g id="Group-116-Copy-5">
                <g id="asset_normal" transform="translate(1575.000000, 26.000000)">
                    <g id="Group-66">
                        <path d="M6.56740873,7.6491073 L6.56740873,6.91360699 L3.7540094,6.91360699 L3.7540094,5.84063224 L5.60987141,5.84063224 L4.19922569,4.42998652 L4.9579334,3.6712788 L7.12728684,5.84063224 L7.19212483,5.84063224 L9.36147827,3.6712788 L10.120186,4.42998652 L8.70954026,5.84063224 L10.604556,5.84063224 L10.604556,6.91360699 L7.64038347,6.91360699 L7.64038347,7.6491073 L10.604556,7.6491073 L10.604556,8.72208205 L7.64038347,8.72208205 L7.64038347,10.6712788 L6.56740873,10.6712788 L6.56740873,8.72208205 L3.7540094,8.72208205 L3.7540094,7.6491073 L6.56740873,7.6491073 Z M7,14 C3.13400675,14 0,10.8659932 0,7 C0,3.13400675 3.13400675,0 7,0 C10.8659932,0 14,3.13400675 14,7 C14,10.8659932 10.8659932,14 7,14 Z M7,13 C10.3137085,13 13,10.3137085 13,7 C13,3.6862915 10.3137085,1 7,1 C3.6862915,1 1,3.6862915 1,7 C1,10.3137085 3.6862915,13 7,13 Z" id="Combined-Shape"></path>
                    </g>
                </g>
            </g>
        </g>
    </g>
</svg>