<?xml version="1.0" encoding="UTF-8"?>
<svg width="14px" height="14px" viewBox="0 0 14 14" version="1.1" xmlns="http://www.w3.org/2000/svg" xmlns:xlink="http://www.w3.org/1999/xlink">
    <!-- Generator: Sketch 48.1 (47250) - http://www.bohemiancoding.com/sketch -->
    <title>mine_normal</title>
    <desc>Created with Sketch.</desc>
    <defs></defs>
    <g id="003交易人民币样式" stroke="none" stroke-width="1" fill="none" fill-rule="evenodd" transform="translate(-1655.000000, -26.000000)">
        <g id="Group-57" fill="#C2CAF0" fill-rule="nonzero">
            <g id="Group-116-Copy-5">
                <g id="mine_normal" transform="translate(1655.000000, 26.000000)">
                    <path d="M7,0 C3.1338,0 0,3.1338 0,7 C0,10.8662 3.1338,14 7,14 C10.8662,14 14,10.8662 14,7 C14,3.1338 10.8662,0 7,0 Z M3.45995001,11.8335 C3.57325,9.97654999 5.11522499,8.5 7,8.5 C8.88477501,8.5 10.42675,9.97655001 10.54005,11.8335 C9.546375,12.563475 8.3247,13 7,13 C5.6753,13 4.453625,12.563475 3.45995001,11.8335 Z M5.25,5.75000001 C5.25,4.78515 6.03515,4.00000001 7,4.00000001 C7.96485,4.00000001 8.75,4.78515 8.75,5.75000001 C8.75,6.71485001 7.96485,7.50000001 7,7.50000001 C6.03515,7.50000001 5.25,6.71485 5.25,5.75000001 Z M11.424325,11.038575 C11.09815,9.601075 10.097175,8.41895 8.76464999,7.85645 C9.36620001,7.35154999 9.75,6.59472501 9.75,5.75000001 C9.75,4.23387501 8.516125,3.00000001 7,3.00000001 C5.483875,3.00000001 4.25,4.23387501 4.25,5.75000001 C4.25,6.59472501 4.63380001,7.35155001 5.23535,7.85645 C3.90282499,8.41895 2.90185,9.601075 2.57567499,11.038575 C1.60057501,9.9712 0.999999998,8.55615 0.999999998,7 C0.999999998,3.6914 3.6914,0.999999998 7,0.999999998 C10.3086,0.999999998 13,3.6914 13,7 C13,8.55615 12.399425,9.9712 11.424325,11.038575 Z" id="Shape"></path>
                </g>
            </g>
        </g>
    </g>
</svg>